<?xml version="1.0" encoding="UTF-8"?>
<svg id="b" data-name="Layer 2" xmlns="http://www.w3.org/2000/svg" width="907.23" height="588.02" viewBox="0 0 907.23 588.02">
  <defs>
    <style>
      .e {
        fill: #61439b;
      }
    </style>
  </defs>
  <g id="c" data-name="menu">
    <g id="d" data-name="bg menu">
      <path class="e" d="M826.82,45.45C664.15,296.12,77.49,269.45,2.82,173.12c-11.44-14.76,14.05,68.88,38.27,136.78l36.4-40.44s264.11,34.67,296.06,53.33c27.9,16.3-255.37,4.13-327.56,.78,14.22,39.51,26.17,71.22,26.17,71.22,55.34-5.22,314.56-90.56,688,187.48,113.09,84.19,229.33-787.48,66.67-536.81ZM49.26,250.22s-51.01-22.56,21.78-21.02c0,0,91.15,5.13,193.77,34.78,128.68,37.18-215.55-13.76-215.55-13.76Zm101.42,96.67s184.55-5.33,196.69,0-256.07,17.2-196.69,0Zm343.71-29.12s182.09,35.64,210.64,58.33c25.98,20.65-352.34-86.69-210.64-58.33Zm236.48,194.4s-331.37-103.94-251.25-109.28,251.25,28.31,251.25,28.31v80.97Zm-345.38-240.05c-1.33-29.33,281.33-74.67,281.33-74.67l93.33,154.67s-373.33-50.67-374.67-80Z"/>
    </g>
  </g>
</svg>