<?xml version="1.0" encoding="UTF-8"?>
<svg id="b" data-name="Layer 2" xmlns="http://www.w3.org/2000/svg" width="960.2" height="440.08" viewBox="0 0 960.2 440.08">
  <defs>
    <style>
      .e {
        fill: #ce42c8;
      }

      .f {
        fill: #ff6cf8;
      }
    </style>
  </defs>
  <g id="c" data-name="menu">
    <g id="d" data-name="bg menu">
      <g>
        <path class="e" d="M844.18,4.88c-57.94,14.57-118.39,33.38-232.03,56.06-33.54,6.69-65.19,15.07-95.82,21.15C196.67,145.57,20.22,108.08,20.22,108.08L.68,438.66C414,66.38,959.17,134.43,959.17,134.43c0,0,13.82-161.93-114.99-129.54Zm-216.2,56.9c22.99-8.86,168.93-35.96,168.93-35.96l7.11,50.07s-203.51-3.52-176.04-14.11Zm42.11,32.78c-5.93-.59,12.93-4.74,12.93-4.74,0,0,27.37-7.7,36.85-5.33s-43.85,10.67-49.78,10.07Zm-57.71-2.07s69.85-12.44,82.3-10.67c12.44,1.78-147.71,24-82.3,10.67Zm-319.37,24.44c223.79-25.2,110.22,8.25,110.22,8.25l-206.85,72.27-80.48-42.13s45.34-22.49,177.11-38.39Zm-76.47,167.7l-24.98-33.11s37.11-64.87,128.2-65.15c91.09-.29-103.22,98.26-103.22,98.26Zm132.84-110.74c-66.77,14.58-55.21-2.52-55.21-2.52,0,0-16.36-16.45,194.12-46.56,208.43-29.81-72.14,34.49-138.91,49.07Zm226.56-23.92c-16.77-6.22,147.15-34.89,68.09-12.25,0,0-51.32,18.47-68.09,12.25Zm257.4-25.39s-160.59,16.43-169.19,11.4c-8.06-4.73,197.74-49.19,197.74-49.19l-28.56,37.79Z"/>
        <g>
          <path class="f" d="M844.2,4.96c-33.77,8.55-67.31,17.98-101.1,26.5-50.6,13.1-101.82,23.55-152.97,34.21-152.31,35.94-309.26,57.54-465.98,52.55-12.49-.37-26.67-1.39-39.14-2.11-21.51-1.59-43.63-3.8-64.87-7.7,0,0,.41-.31,.41-.31l-2.32,41.33C12.75,239.11,5.95,348.78,.86,438.67c0,0-.3-.14-.3-.14,43.89-39.79,90.96-75.99,140.82-107.98,203.97-131.78,447.03-196.31,688.78-201.34,43.06-.69,86.23,.13,129.07,4.76,0,0-.53,.43-.53,.43,.62-8.71,.57-17.51,.12-26.25-3.94-71.13-36.28-122.99-114.62-103.17h0Zm-.04-.16c78.24-20.01,111.22,31.79,115.48,103.29,.49,8.78,.58,17.58,0,26.38l-.03,.48-.49-.06c-21.38-2.31-42.9-3.43-64.39-4.15-283.92-7.14-575.66,67.36-806.08,237.06-30.32,22.33-59.71,45.94-87.84,70.99,0,0-.33,.29-.33,.29l.03-.43,5-82.64c4.84-76.56,9.31-171.8,14.38-247.95,0,0,.02-.38,.02-.38l.38,.07c17.08,3.28,34.41,5.24,51.73,6.99,8.29,.59,18.02,1.74,26.04,2.09,8.09,.4,18.25,1.11,26.09,1.29,156.71,4.97,313.65-16.64,465.95-52.59,51.15-10.67,102.36-21.12,152.97-34.23,33.78-8.52,67.32-17.95,101.09-26.51h0Z"/>
          <path class="f" d="M627.95,61.71c6.76-2.33,13.89-4.12,20.81-5.79,21-5.04,42.17-9.37,63.33-13.68,14.97-3.13,30.07-5.78,45-9.03,1.81-.4,6.09-1.29,7.92-1.68,7.3-1.69,24.32-4.52,31.87-5.83,0,0,.14-.02,.14-.02l.02,.14c1.95,16.76,5.4,33.29,7.3,50.05,0,0,.05,.39,.05,.39l-.38-.02c-37.86-1.26-76.63-1.58-114.43-3.66-19.04-1.08-38.19-2.14-56.96-5.67-2.79-.55-11.6-2.57-4.66-5.19h0Zm.06,.15c-6.58,2.51,2.04,4.22,4.67,4.74,18.82,3.06,37.97,3.49,56.96,4.83,37.56,1.93,76.8,3.89,114.38,4.13,0,0-.33,.38-.33,.38-1-6.25-2.12-12.47-2.66-18.78-1.22-10.47-2.64-20.91-4.26-31.32,0,0,.16,.11,.16,.11-7.66,1.55-24.37,5.07-31.79,6.23-1.87,.31-6.2,1.09-7.98,1.39,0,0-1.33,.23-1.33,.23l-.67,.12c-.22,.05-.44,.07-.68,.03-35.32,6.92-70.67,13.79-105.69,22.11-6.91,1.67-14.05,3.47-20.78,5.8h0Z"/>
          <path class="f" d="M670.08,94.64c-5.92-.89,12.68-4.72,13.51-5,5.36-1.44,10.86-2.76,16.3-3.81,1.86-.63,3.8-1,5.71-1.42,2.51-.29,5.04-.32,7.55-.41,2.22,0,4.53-.11,6.74,.2,.76,.06,2.06,.45,1.45,1.48-1.29,1.36-3.28,1.4-4.96,1.86-2.2,.46-4.34,1.06-6.53,1.53-13.08,2.77-26.33,5.78-39.77,5.57h0Zm.02-.16c4.44,.05,8.84-1.18,13.24-1.72,7.82-1.14,18.82-2.48,26.44-4.07,3.63-.78,7.59-1.46,10.7-3.57,0,0,0,0,.02,0,0,0-.02,.04,0,.05,.02,.04,0,.09,.06,.1-.13-.27-.48-.39-.78-.5-4.57-1.37-9.44-.27-14.01,.6-8.65,.5-17.01,3.11-25.4,5.1-.93,.24-15.06,3.55-10.25,4.01h0Z"/>
          <path class="f" d="M612.37,92.41c23.64-4.2,47.39-7.69,71.19-10.77,3.63-.4,7.36-.39,11-.02,.26,.03,.52,.06,.83,.22,.12,.06,.2,.25,.15,.35-.06,.15-.13,.17-.19,.23-1.07,.56-2.28,.74-3.41,1.04,0,0-6.13,1.3-6.13,1.3-2.25,.47-7.04,1.54-9.17,2.1-7.23,1.05-14.49,1.88-21.69,3.13-18.59,2.7-37.12,6.2-55.91,7.23-.86-.05-1.79,.11-2.6-.29-.04,0-.24-.25-.23-.39-.01-.17,.11-.39,.14-.39,1.09-.8,2.52-.89,3.75-1.25,3.47-.79,8.73-1.75,12.29-2.47h0Zm.03,.16c-5.13,1.21-10.47,2.11-15.35,4.08-.04,.02-.07,.05-.04,.03-.03,.03,.09-.12,.06-.22,0-.05-.01-.11-.05-.17,18.74-1.33,38.78-4.11,57.86-6.7,5.98-.81,12.57-1.9,18.5-3.19,0,0,3.07-.58,3.07-.58,5.18-.51,10.38-1.26,15.43-2.55,1.12-.33,2.41-.55,3.32-1.18,.01,0-.02,.04,.01,.05-.17-.08-.45-.13-.71-.13-2.58-.14-5.19,.01-7.76,.26-2.04,.25-4.19,.22-6.23,.4,0,0-3.12,.2-3.12,.2-.59,.01-1.18,.12-1.76,.1-.07-.04-.14-.08-.2-.06l-.39,.05c-20.98,2.5-41.83,5.99-62.63,9.6h0Z"/>
          <path class="f" d="M293.01,116.85c32.49-3.59,65.02-7.06,97.67-8.81,10.2-.46,20.44-.91,30.64-.2,28.79,2.29-8.48,14.49-16.57,16.93-3.3,.99-8.25,2.86-11.59,3.98-7.2,2.5-18.87,6.6-26.04,9.09-25.17,9.59-52.72,18.58-78.11,27.34-30.82,10.91-61.56,22.03-92.56,32.42-.13,.1-80.59-41.93-80.72-41.94,0,0-.72-.38-.72-.38,14.14-6.35,28.99-10.66,43.86-14.71,43.46-11.77,89.44-18.39,134.15-23.72h0Zm.02,.16c-44.44,5.79-90.55,13.35-133.91,24.52-14.57,3.91-29.21,8.05-43.03,14.14,0,0,0-.7,0-.7l80.38,42.34c14.79-5.25,30.82-11.13,46.05-16.52,40.59-13,81.11-28.77,121.64-42.13,8.48-2.67,20.52-7.11,28.97-9.99,11.41-4.27,23.6-7.11,34.39-12.88,32.37-18.92-128.74,.79-134.49,1.23h0Z"/>
          <path class="f" d="M216.53,284.71s-25.01-33.15-25.04-33.18c3.67-5.99,8.11-11.48,12.84-16.65,10.66-11.6,23.27-21.41,37.05-29.03,4.61-2.54,9.33-4.85,14.08-7.1,15.99-7.32,33.55-10.41,50.96-11.92,2.67-.27,7.78-.6,10.49-.68,3.51-.26,7.03-.39,10.54-.01,5.14,.58,10.91,1.22,14.9,4.87,12.42,13-42.47,46.28-52.32,52.87-23.8,14.88-48.23,28.58-73.5,40.83h0Zm.04-.16c24.27-13.3,49.44-27.04,72.92-41.53,9.75-6.29,64.76-38.92,52.58-51.72-1.23-1.19-2.84-1.94-4.46-2.49-4.96-1.61-10.27-1.73-15.45-1.92-1.6-.11-3.67-.17-5.24-.16-13.93-.16-28.05,1.9-41.42,5.77-10.01,3.08-20.09,6.22-29.44,10.96-15.59,7.92-29.81,18.62-41.64,31.5-4.72,5.16-9.14,10.63-12.79,16.6-.17-.3,24.99,33.05,24.94,33h0Z"/>
          <path class="f" d="M349.4,173.97c-15.05,3.04-30.35,6.51-45.8,5.69-4.48-.22-12.89-2.25-9.48-8.32,0,0,0,.08,0,.08-.47-.57-.32-1.34-.06-1.93,.9-1.79,2.67-2.89,4.29-3.97,6.77-3.98,14.32-6.41,21.77-8.77,25.02-7.55,50.74-12.5,76.4-17.29,0,0,7.71-1.4,7.71-1.4,.33-.02,.62-.26,.95-.28l.96-.18c32.69-6.46,65.83-10.18,98.73-15.39,15.4-2.6,31.19-4.01,46.75-5.11,25.14-1.59,6.75,5.21-4.29,8.59-64.89,19.23-131.81,34.05-197.93,48.28h0Zm-.03-.16c29.45-6.55,61.99-14.61,91.57-21.41,34.86-8.37,72.04-16.87,106.26-27.17,9.33-2.99,29.5-9.36,4.45-7.81-10.42,.68-20.77,2.18-31.13,3.53-10.35,1.4-20.77,2.33-31.11,3.82-28.15,3.84-56.08,9.08-84.17,13.32-.32,.09-.67-.03-.98,.07-7.47,1.34-15.7,2.86-23.11,4.3-20.48,4.08-40.99,8.31-60.98,14.42-8.02,2.6-16.32,5.09-23.36,9.85-1,.8-2.05,1.63-2.62,2.82-.26,.58-.37,1.34,.07,1.82-3.39,5.98,4.97,7.94,9.36,8.15,15.42,.81,30.72-2.66,45.75-5.71h0Z"/>
          <path class="f" d="M575.92,150.05c-10.16-4.53,50.26-15.81,53.58-16.37,3.76-.92,7.75-1.84,11.58-2.4,3.91-.51,7.83-.93,11.75-1.36,3.46-.28,8.36-1.13,11.82-.96,.53,.05,1.36,.11,1.44,.83-.36,2.19-7.75,3.73-9.79,4.47-18.79,5.47-37.44,13.06-56.84,16.19-7.74,1.11-15.96,2.01-23.54-.39h0Zm.06-.15c13.7,4.65,54.06-7.7,68.9-12.62,6.81-1.91,13.69-3.93,19.98-7.22,.19-.1,.38-.24,.44-.31,.02-.02,0,0,.03,.01,0,.04,.03,.06,.03,.06,.03,0-.05-.07-.13-.11-3.99-.87-8.32-.08-12.35,.38-4.38,.62-8.74,1.49-13.09,2.32-3.35,.41-6.91,.99-10.26,1.34-3.29,.49-63.07,11.96-53.54,16.14h0Z"/>
          <path class="f" d="M833.39,124.65c-38.88,3.89-77.66,7.52-116.59,10.32-15.59,.76-31.13,2.93-46.77,2.23-5.72-.3-10.04-1.31-1.58-4.21,33.44-10.81,67.92-17.82,102.04-26.05,30.88-7.28,61.79-14.38,92.81-21.03-9.55,12.63-20.09,26.24-29.91,38.74h0Zm-.08-.14c8.95-12.4,19-25.87,28.14-38.06,0,0,.57,.9,.57,.9-37.79,8.32-76.48,16.55-114.24,25.31-10.99,2.47-23.11,5.59-34.06,8.5-11.35,2.84-22.84,5.11-34.05,8.53-3.74,1.12-7.47,2.25-11.1,3.65-1.47,.65-3.21,1.11-4.35,2.26-.03,.07-.04,.06-.01,.08,.02,.02,.08,.08,.19,.11,1.73,.64,3.79,.61,5.65,.7,15.59,.01,31.19-.41,46.73-1.62,38.88-2.8,77.78-6.49,116.52-10.36h0Z"/>
        </g>
      </g>
    </g>
  </g>
</svg>