<?xml version="1.0" encoding="UTF-8"?>
<svg id="b" data-name="Layer 2" xmlns="http://www.w3.org/2000/svg" width="693.33" height="515.52" viewBox="0 0 693.33 515.52">
  <defs>
    <style>
      .e {
        fill: #ce42c8;
      }

      .f {
        fill: #ff6cf8;
      }
    </style>
  </defs>
  <g id="c" data-name="menu">
    <g id="d" data-name="bg menu">
      <g>
        <path class="e" d="M650.09,1.5C411.53,411.31,.51,443.42,.51,443.42c0,0,4.35,156.33,266.82,7,262.47-149.33,425.42-144.92,425.42-144.92L650.09,1.5Zm-131.56,177.29l24,25.8s-16,65.39-82.67,81.35c-66.67,15.97,58.67-107.15,58.67-107.15ZM79.96,469.97l14.4-39.29s123.92-48.9,130.38-45.14-144.78,84.43-144.78,84.43Zm150.8-83.88s34.41-25.64,47.76-22.88c13.35,2.76-101.76,57.1-47.76,22.88Zm209.57-83.7c46.39-24.77,40.87-7.23,40.87-7.23,0,0,14.81,12.14-134.15,75.81-147.52,63.04,46.89-43.81,93.28-68.58Zm51.1,42.08c-159.56,61.5-82.15,11.5-82.15,11.5l139.04-101.39,66.21,24.44s-29.33,28.27-123.1,65.44Z"/>
        <g>
          <path class="f" d="M650.07,1.57c-67.94,117.27-161.48,220.02-273.74,296.2-70.01,47.77-146.88,85.36-227.24,112.24-48.25,15.9-97.99,28.14-148.57,33.53,.74,7.25,2.4,16.01,5.36,23.3,24.36,61.42,95.9,52.02,147.36,35.57,38.28-12.3,74.65-29.98,109.65-49.66,12.71-7.08,29.63-16.68,42.26-23.3,42.48-22.71,86.3-43.51,130.96-61.57,31.5-12.8,64.13-24.3,96.71-34.05,36.62-10.79,73.99-19.64,111.81-24.91,15.97-2.14,31.99-3.88,48.13-3.89-13.1-81.5-30.38-218.62-42.69-303.47h0Zm.03-.13c11.85,86.72,31.56,218.84,43.19,304.53-32.32,.22-64.43,5.67-96.01,12.18-31.32,6.65-62.59,15.36-93.02,25.38-22.68,7.47-45.81,15.94-67.93,24.89-44.67,17.98-88.51,38.71-131.01,61.35-20.55,10.77-42.96,23.94-63.47,34.78-42.62,22.11-87.39,42.92-135.41,49.36-31.25,4.12-67.67-.17-88.66-26.2-7.66-9.35-12.86-20.6-15.58-32.35-.89-3.92-1.57-7.9-1.8-11.94v-.11s.11-.01,.11-.01c33.71-3.49,66.95-10.77,99.67-19.43,98.31-26.04,192.1-68.82,276.1-126.18,87.6-59.58,164.12-135.21,225.53-221.49,17.11-23.94,33.32-49.43,48.3-74.77h0Z"/>
          <path class="f" d="M518.53,178.72s24.04,25.83,24.06,25.85c-9.76,32.64-32.96,62.77-65.09,75.65-3.85,1.52-8.17,3.18-12.1,4.41-4.37,1.27-9.08,2.87-13.66,3.04-2.52,.1-5.16,0-7.51-1.01-23.19-10.58,62.49-97.36,74.31-107.95h0Zm0,.13c-10.58,11.91-96.95,96.89-74.13,107.39,5.42,1.78,11.3,.05,16.74-.91,11.17-2.44,21.81-7.13,31.39-13.35,4.06-2.74,8.28-5.8,12.09-8.83,1.56-1.36,3.37-2.78,4.86-4.21,0,0,.39-.36,.39-.36,.15-.1,.33-.16,.45-.31,15.06-14.71,26.3-33.48,32.17-53.69,.15,.19-23.99-25.75-23.95-25.72h0Z"/>
          <path class="f" d="M79.92,470.03s14.38-39.4,14.43-39.39c20.23-7.96,42.22-16.34,62.66-23.92,8.21-3.34,18.49-7.22,26.96-9.98,12.18-3.92,24.19-8.28,36.63-11.34,2.88-.81,7.26-.84,3,2.84-24.18,16.99-50.56,30.68-76.1,45.48-22.34,12.43-44.74,24.83-67.58,36.32h0Zm.09-.1c31.87-18.06,68.75-37.49,100.56-55.61,11.07-6.37,22.25-12.59,32.9-19.63,2.65-1.78,5.27-3.61,7.77-5.56,1.12-.94,2.7-2,3.26-3.24-1.01-.26-2.57-.07-3.79,.08-6.27,1.07-12.42,2.98-18.48,4.91-8.75,2.88-18.38,6.43-27.06,9.68-26.88,9.04-54.37,19.89-80.78,30.18,.07-.17-14.37,39.21-14.38,39.19h0Z"/>
          <path class="f" d="M230.72,386.04c4.92-3.59,9.98-6.99,15.15-10.21,9.08-5.45,18.52-11.06,29.06-13.02,1.48-.15,5.92-.62,4.81,2.02-1.49,2.3-4.04,3.61-6.21,5.17-1.55,1-8.23,5.31-9.56,6.28-4.7,2.52-9.54,4.78-14.23,7.33-9.52,4.8-19,9.83-29.09,13.38-1.34,.39-2.69,.96-4.13,.84,0,0-.22-.06-.22-.06-.08-.04-.17-.08-.26-.14-.49-.36-.25-1.14,.01-1.43,1.88-2.25,4.51-3.69,6.89-5.31,0,0,7.76-4.84,7.76-4.84h0Zm.08,.11c-3.84,2.47-7.58,5.1-11.12,7.96-1.01,.89-2.27,1.74-2.93,2.88,0,0-.03-.15-.09-.16,2.75-.08,5.38-1.42,7.97-2.31,8.48-3.36,16.81-7.12,24.97-11.21,3.96-1.93,8.24-4.26,11.98-6.63,0,0,1.97-1.16,1.97-1.16,4.81-2.24,9.48-4.96,13.48-8.47,.79-.77,3.68-3.24,1.26-3.47-2.19-.46-4.5-.23-6.68,.18-.12,.05-.2-.05-.3-.03,0,0-.28,.06-.28,.06-3.13,.83-6.15,2.01-9.09,3.35-11.05,5.15-21.29,11.87-31.15,18.99h0Z"/>
          <path class="f" d="M440.3,302.34c8.44-4.27,30.47-16.4,39.06-12.4,1.88,.86,2.51,3.59,1.88,5.19,2.88,4.67-12,14.68-15.49,17.11-18.47,12.28-38.5,22.08-58.44,31.72-16.06,8.42-32.93,15.3-49.58,22.49-11.11,4.65-22.14,9.91-33.33,14.4-5.24,1.87-47.49,19.17-25.61,2.97,18.12-12.82,37.53-23.7,56.66-34.9,27.9-16.22,56.3-31.54,84.86-46.57h0Zm.06,.12c-27.84,15.21-56.84,31.59-84.53,47.13-19.18,11.09-38.64,21.83-56.83,34.52-21.41,15.54,20.61-2.1,25.1-4.01,27.82-10.57,54.65-23.44,81.77-35.65,13.25-6.03,26.34-12.81,39.13-19.79,10.51-5.93,21.11-11.96,30.33-19.81,2.23-2,4.5-4.13,5.83-6.85,0,0,.26-.7,.26-.7,.04-.24,.12-.48,.13-.73,.06-.5-.05-1.05-.4-1.39,.26-.95,.29-2,0-2.95-3.92-9.79-34.24,6.9-40.78,10.22h0Z"/>
          <path class="f" d="M491.45,344.54c-5.06,1.76-124.04,49.11-96.85,22.54,4.66-4.33,9.9-7.96,15.16-11.51,6.75-5.01,19.45-14,25.92-19.01,12.25-9.37,38.19-28.01,51.02-37.13,20.49-15.04,40.88-30.43,61.66-44.97,0,0,66.28,24.26,66.28,24.26l.51,.19-.39,.36c-17.79,15.17-38.57,26.43-59.23,37.16-20.06,10.27-43.08,19.73-64.08,28.11h0Zm-.05-.12c32.1-13.11,64.53-27.95,94.33-45.64,9.91-6.04,19.82-12.32,28.57-19.98,0,0,.11,.55,.11,.55,.05,.01-66.57-24.7-66.01-24.64-20.33,15.22-41,29.99-61.61,44.84-10.12,7.55-36.06,26.84-46.1,33.78-8.92,6.2-21.98,15.84-30.87,22.32-5.26,3.55-10.5,7.18-15.15,11.51-26.94,26.25,91.8-21.01,96.74-22.73h0Z"/>
        </g>
      </g>
    </g>
  </g>
</svg>